<mxfile host="65bd71144e">
    <diagram id="cL4T2Vn8xci9TVbvE1St" name="ページ1">
        <mxGraphModel dx="1978" dy="1298" grid="1" gridSize="10" guides="1" tooltips="1" connect="1" arrows="1" fold="1" page="1" pageScale="1" pageWidth="1654" pageHeight="1169" math="0" shadow="0">
            <root>
                <mxCell id="0"/>
                <mxCell id="1" parent="0"/>
                <mxCell id="2" value="" style="whiteSpace=wrap;html=1;" vertex="1" parent="1">
                    <mxGeometry x="80" y="80" width="1480" height="200" as="geometry"/>
                </mxCell>
                <mxCell id="3" value="" style="whiteSpace=wrap;html=1;" vertex="1" parent="1">
                    <mxGeometry x="80" y="920" width="1480" height="200" as="geometry"/>
                </mxCell>
                <mxCell id="5" value="" style="whiteSpace=wrap;html=1;" vertex="1" parent="1">
                    <mxGeometry x="80" y="320" width="1160" height="560" as="geometry"/>
                </mxCell>
                <mxCell id="6" value="" style="whiteSpace=wrap;html=1;" vertex="1" parent="1">
                    <mxGeometry x="1280" y="320" width="280" height="560" as="geometry"/>
                </mxCell>
                <mxCell id="7" value="" style="whiteSpace=wrap;html=1;" vertex="1" parent="1">
                    <mxGeometry x="130" y="435" width="1060" height="150" as="geometry"/>
                </mxCell>
                <mxCell id="8" value="" style="whiteSpace=wrap;html=1;" vertex="1" parent="1">
                    <mxGeometry x="130" y="615" width="1060" height="245" as="geometry"/>
                </mxCell>
                <mxCell id="9" value="" style="whiteSpace=wrap;html=1;" vertex="1" parent="1">
                    <mxGeometry x="850" y="650" width="300" height="185" as="geometry"/>
                </mxCell>
                <mxCell id="10" value="" style="whiteSpace=wrap;html=1;" vertex="1" parent="1">
                    <mxGeometry x="510" y="650" width="300" height="185" as="geometry"/>
                </mxCell>
                <mxCell id="12" value="" style="whiteSpace=wrap;html=1;" vertex="1" parent="1">
                    <mxGeometry x="600" y="115" width="920" height="135" as="geometry"/>
                </mxCell>
                <mxCell id="13" value="header" style="text;html=1;align=center;verticalAlign=middle;resizable=0;points=[];autosize=1;strokeColor=none;fillColor=none;fontSize=30;" vertex="1" parent="1">
                    <mxGeometry x="120" y="110" width="120" height="50" as="geometry"/>
                </mxCell>
                <mxCell id="14" value="nav" style="text;html=1;align=center;verticalAlign=middle;resizable=0;points=[];autosize=1;strokeColor=none;fillColor=none;fontSize=30;" vertex="1" parent="1">
                    <mxGeometry x="625" y="130" width="70" height="50" as="geometry"/>
                </mxCell>
                <mxCell id="15" value="main" style="text;html=1;align=center;verticalAlign=middle;resizable=0;points=[];autosize=1;strokeColor=none;fillColor=none;fontSize=30;" vertex="1" parent="1">
                    <mxGeometry x="130" y="350" width="90" height="50" as="geometry"/>
                </mxCell>
                <mxCell id="16" value="section" style="text;html=1;align=center;verticalAlign=middle;resizable=0;points=[];autosize=1;strokeColor=none;fillColor=none;fontSize=30;" vertex="1" parent="1">
                    <mxGeometry x="145" y="460" width="120" height="50" as="geometry"/>
                </mxCell>
                <mxCell id="17" value="section" style="text;html=1;align=center;verticalAlign=middle;resizable=0;points=[];autosize=1;strokeColor=none;fillColor=none;fontSize=30;" vertex="1" parent="1">
                    <mxGeometry x="145" y="630" width="120" height="50" as="geometry"/>
                </mxCell>
                <mxCell id="18" value="article" style="text;html=1;align=center;verticalAlign=middle;resizable=0;points=[];autosize=1;strokeColor=none;fillColor=none;fontSize=30;" vertex="1" parent="1">
                    <mxGeometry x="535" y="660" width="100" height="50" as="geometry"/>
                </mxCell>
                <mxCell id="19" value="article" style="text;html=1;align=center;verticalAlign=middle;resizable=0;points=[];autosize=1;strokeColor=none;fillColor=none;fontSize=30;" vertex="1" parent="1">
                    <mxGeometry x="870" y="660" width="100" height="50" as="geometry"/>
                </mxCell>
                <mxCell id="20" value="aside" style="text;html=1;align=center;verticalAlign=middle;resizable=0;points=[];autosize=1;strokeColor=none;fillColor=none;fontSize=30;" vertex="1" parent="1">
                    <mxGeometry x="1310" y="350" width="100" height="50" as="geometry"/>
                </mxCell>
                <mxCell id="21" value="footer" style="text;html=1;align=center;verticalAlign=middle;resizable=0;points=[];autosize=1;strokeColor=none;fillColor=none;fontSize=30;" vertex="1" parent="1">
                    <mxGeometry x="125" y="940" width="100" height="50" as="geometry"/>
                </mxCell>
            </root>
        </mxGraphModel>
    </diagram>
</mxfile>